<svg width="102" height="44" viewBox="0 0 102 44" fill="none" xmlns="http://www.w3.org/2000/svg">
<path d="M31.5 3H12.5C7.27546 3 3 7.27361 3 12.5V31.5C3 36.7245 7.27546 41 12.5 41H31.5C36.7245 41 41 36.7245 41 31.5V12.5C41 7.27361 36.7245 3 31.5 3ZM22 29.9164C17.6271 29.9164 14.0832 26.3709 14.0832 22C14.0832 17.6271 17.6271 14.0832 22 14.0832C26.3709 14.0832 29.9168 17.6271 29.9168 22C29.9168 26.3709 26.3709 29.9164 22 29.9164ZM32.2918 14.0832C30.9789 14.0832 29.9168 13.0196 29.9168 11.7082C29.9168 10.3967 30.9789 9.33318 32.2918 9.33318C33.6047 9.33318 34.6668 10.3967 34.6668 11.7082C34.6668 13.0196 33.6047 14.0832 32.2918 14.0832Z" fill="#282828"/>
<path d="M80.959 3C70.4824 3 61.959 11.5228 61.959 22C61.959 25.6862 63.016 29.24 65.0224 32.3263L62.0617 39.2348C61.8576 39.7098 61.9639 40.2628 62.3301 40.6289C62.5725 40.8714 62.8966 41 63.2257 41C63.3939 41 63.564 40.9666 63.7248 40.8973L70.6333 37.936C73.7189 39.9436 77.2728 41 80.959 41C91.4362 41 99.959 32.4772 99.959 22C99.959 11.5228 91.4362 3 80.959 3ZM90.7113 28.8009C90.7113 28.8009 89.1317 30.8271 87.99 31.3008C85.088 32.502 80.9911 31.3008 76.324 26.635C71.6581 21.9678 70.4564 17.871 71.6581 14.969C72.1319 13.826 74.1581 12.2477 74.1581 12.2477C74.7073 11.8197 75.5608 11.8729 76.0531 12.3652L78.3452 14.6573C78.8376 15.1496 78.8376 15.9561 78.3452 16.4484L76.9066 17.8858C76.9066 17.8858 76.324 19.6349 79.8234 23.1355C83.3229 26.635 85.0732 26.0523 85.0732 26.0523L86.5105 24.6137C87.0029 24.1214 87.8094 24.1214 88.3017 24.6137L90.5938 26.9059C91.0861 27.3982 91.1393 28.2505 90.7113 28.8009Z" fill="#282828"/>
</svg>
